<svg width="370" height="414" viewBox="0 0 370 414" fill="none" xmlns="http://www.w3.org/2000/svg">
<rect x="69" y="76" width="235" height="311" rx="25" fill="white" stroke="#191D31" stroke-width="6"/>
<g filter="url(#filter0_d_17441_44499)">
<rect x="83" y="248" width="120" height="28" rx="10" fill="white"/>
</g>
<g filter="url(#filter1_d_17441_44499)">
<rect x="83" y="302" width="207" height="28" rx="10" fill="white"/>
</g>
<g filter="url(#filter2_d_17441_44499)">
<rect x="207" y="248" width="83" height="28" rx="10" fill="white"/>
</g>
<rect x="90" y="309" width="14" height="14" rx="5" fill="#EEF1F8"/>
<rect x="90" y="255" width="14" height="14" rx="5" fill="#EEF1F8"/>
<rect x="214" y="255" width="14" height="14" rx="5" fill="#EEF1F8"/>
<rect x="83" y="232" width="64" height="10" rx="5" fill="#E7EAF1"/>
<rect x="131" y="196" width="112" height="16" rx="8" fill="#B1B8C8"/>
<rect x="83" y="286" width="64" height="10" rx="5" fill="#E7EAF1"/>
<rect x="207" y="232" width="47" height="10" rx="5" fill="#E7EAF1"/>
<circle cx="187" cy="146" r="35" fill="#EEF1F8"/>
<path opacity="0.4" d="M182.413 134.453V153.56C181.96 153.573 181.507 153.68 181.173 153.88L178.04 155.667C175.853 156.92 174.053 155.88 174.053 153.347V140.373C174.053 139.533 174.653 138.493 175.4 138.067L181.173 134.76C181.507 134.573 181.96 134.467 182.413 134.453Z" fill="#191D31"/>
<path d="M191.973 138.44V157.547C191.507 157.56 191.053 157.48 190.693 157.307L183.693 153.8C183.333 153.627 182.88 153.547 182.413 153.56V134.453C182.88 134.44 183.333 134.52 183.693 134.693L190.693 138.2C191.053 138.373 191.507 138.453 191.973 138.44Z" fill="#191D31"/>
<path opacity="0.4" d="M200.333 138.653V151.627C200.333 152.467 199.733 153.507 198.987 153.933L193.213 157.24C192.88 157.427 192.427 157.533 191.973 157.547V138.44C192.427 138.427 192.88 138.32 193.213 138.12L196.347 136.333C198.533 135.08 200.333 136.12 200.333 138.653Z" fill="#191D31"/>
<g filter="url(#filter3_d_17441_44499)">
<circle cx="69" cy="86" r="30" fill="white"/>
</g>
<g clip-path="url(#clip0_17441_44499)">
<path d="M69 72.6666C61.6534 72.6666 55.6667 78.6533 55.6667 86C55.6667 93.3466 61.6534 99.3333 69 99.3333C76.3467 99.3333 82.3334 93.3466 82.3334 86C82.3334 78.6533 76.3467 72.6666 69 72.6666ZM75.3734 82.9333L67.8134 90.4933C67.6267 90.68 67.3734 90.7866 67.1067 90.7866C66.84 90.7866 66.5867 90.68 66.4 90.4933L62.6267 86.72C62.24 86.3333 62.24 85.6933 62.6267 85.3066C63.0134 84.92 63.6534 84.92 64.04 85.3066L67.1067 88.3733L73.96 81.52C74.3467 81.1333 74.9867 81.1333 75.3734 81.52C75.76 81.9066 75.76 82.5333 75.3734 82.9333Z" fill="#1D272F"/>
</g>
<defs>
<filter id="filter0_d_17441_44499" x="3" y="172" width="280" height="188" filterUnits="userSpaceOnUse" color-interpolation-filters="sRGB">
<feFlood flood-opacity="0" result="BackgroundImageFix"/>
<feColorMatrix in="SourceAlpha" type="matrix" values="0 0 0 0 0 0 0 0 0 0 0 0 0 0 0 0 0 0 127 0" result="hardAlpha"/>
<feOffset dy="4"/>
<feGaussianBlur stdDeviation="40"/>
<feComposite in2="hardAlpha" operator="out"/>
<feColorMatrix type="matrix" values="0 0 0 0 0.654902 0 0 0 0 0.662745 0 0 0 0 0.717647 0 0 0 0.25 0"/>
<feBlend mode="normal" in2="BackgroundImageFix" result="effect1_dropShadow_17441_44499"/>
<feBlend mode="normal" in="SourceGraphic" in2="effect1_dropShadow_17441_44499" result="shape"/>
</filter>
<filter id="filter1_d_17441_44499" x="3" y="226" width="367" height="188" filterUnits="userSpaceOnUse" color-interpolation-filters="sRGB">
<feFlood flood-opacity="0" result="BackgroundImageFix"/>
<feColorMatrix in="SourceAlpha" type="matrix" values="0 0 0 0 0 0 0 0 0 0 0 0 0 0 0 0 0 0 127 0" result="hardAlpha"/>
<feOffset dy="4"/>
<feGaussianBlur stdDeviation="40"/>
<feComposite in2="hardAlpha" operator="out"/>
<feColorMatrix type="matrix" values="0 0 0 0 0.654902 0 0 0 0 0.662745 0 0 0 0 0.717647 0 0 0 0.25 0"/>
<feBlend mode="normal" in2="BackgroundImageFix" result="effect1_dropShadow_17441_44499"/>
<feBlend mode="normal" in="SourceGraphic" in2="effect1_dropShadow_17441_44499" result="shape"/>
</filter>
<filter id="filter2_d_17441_44499" x="127" y="172" width="243" height="188" filterUnits="userSpaceOnUse" color-interpolation-filters="sRGB">
<feFlood flood-opacity="0" result="BackgroundImageFix"/>
<feColorMatrix in="SourceAlpha" type="matrix" values="0 0 0 0 0 0 0 0 0 0 0 0 0 0 0 0 0 0 127 0" result="hardAlpha"/>
<feOffset dy="4"/>
<feGaussianBlur stdDeviation="40"/>
<feComposite in2="hardAlpha" operator="out"/>
<feColorMatrix type="matrix" values="0 0 0 0 0.654902 0 0 0 0 0.662745 0 0 0 0 0.717647 0 0 0 0.25 0"/>
<feBlend mode="normal" in2="BackgroundImageFix" result="effect1_dropShadow_17441_44499"/>
<feBlend mode="normal" in="SourceGraphic" in2="effect1_dropShadow_17441_44499" result="shape"/>
</filter>
<filter id="filter3_d_17441_44499" x="-21" y="0" width="180" height="180" filterUnits="userSpaceOnUse" color-interpolation-filters="sRGB">
<feFlood flood-opacity="0" result="BackgroundImageFix"/>
<feColorMatrix in="SourceAlpha" type="matrix" values="0 0 0 0 0 0 0 0 0 0 0 0 0 0 0 0 0 0 127 0" result="hardAlpha"/>
<feOffset dy="4"/>
<feGaussianBlur stdDeviation="30"/>
<feComposite in2="hardAlpha" operator="out"/>
<feColorMatrix type="matrix" values="0 0 0 0 0.694118 0 0 0 0 0.721569 0 0 0 0 0.784314 0 0 0 0.25 0"/>
<feBlend mode="normal" in2="BackgroundImageFix" result="effect1_dropShadow_17441_44499"/>
<feBlend mode="normal" in="SourceGraphic" in2="effect1_dropShadow_17441_44499" result="shape"/>
</filter>
<clipPath id="clip0_17441_44499">
<rect width="32" height="32" fill="white" transform="translate(53 70)"/>
</clipPath>
</defs>
</svg>
