<svg width="23" height="16" viewBox="0 0 23 16" fill="none" xmlns="http://www.w3.org/2000/svg">
<path fill-rule="evenodd" clip-rule="evenodd" d="M2.56789 16C1.56983 16 0.760742 15.2165 0.760742 14.25L0.760742 2.25C0.760742 1.2835 1.56983 0.5 2.56789 0.5L21.1003 0.5C22.1886 0.5 22.7884 1.72407 22.1002 2.54047L20.2376 4.75L22.5217 7.45953C22.9095 7.91959 22.9095 8.5804 22.5217 9.04047L20.2376 11.75L22.1002 13.9595C22.7884 14.7759 22.1886 16 21.1003 16L2.56789 16ZM2.30972 14.25C2.30972 14.3881 2.42531 14.5 2.56789 14.5L20.5563 14.5L18.9044 12.5405C18.5166 12.0804 18.5166 11.4196 18.9044 10.9595L21.1885 8.25L18.9044 5.54047C18.5166 5.0804 18.5166 4.41959 18.9044 3.95953L20.5563 2L2.56789 2C2.42531 2 2.30972 2.11193 2.30972 2.25L2.30972 14.25Z" fill="#C9C5C4"/>
<path fill-rule="evenodd" clip-rule="evenodd" d="M7.73128 13C7.30354 13 6.95679 12.6642 6.95679 12.25L6.95679 4.25C6.95679 3.83579 7.30354 3.5 7.73128 3.5C8.15902 3.5 8.50577 3.83579 8.50577 4.25V12.25C8.50577 12.6642 8.15902 13 7.73128 13Z" fill="#C9C5C4"/>
<path fill-rule="evenodd" clip-rule="evenodd" d="M10.8292 13C10.4014 13 10.0547 12.6642 10.0547 12.25L10.0547 4.25C10.0547 3.83579 10.4014 3.5 10.8292 3.5C11.2569 3.5 11.6037 3.83579 11.6037 4.25V12.25C11.6037 12.6642 11.2569 13 10.8292 13Z" fill="#C9C5C4"/>
<path fill-rule="evenodd" clip-rule="evenodd" d="M13.9271 13C13.4993 13 13.1526 12.6642 13.1526 12.25L13.1526 4.25C13.1526 3.83579 13.4993 3.5 13.9271 3.5C14.3548 3.5 14.7016 3.83579 14.7016 4.25V12.25C14.7016 12.6642 14.3548 13 13.9271 13Z" fill="#C9C5C4"/>
</svg>
